<?xml version="1.0" encoding="UTF-8"?>
<svg id="Layer_1" data-name="Layer 1" xmlns="http://www.w3.org/2000/svg" viewBox="0 0 243.6676192109 91.3082276836">
  <defs>
    <style>
      .cls-1 {
        fill: #2e3192;
      }

      .cls-2, .cls-3 {
        fill: #32409a;
      }

      .cls-4 {
        fill: #44ade2;
      }

      .cls-3 {
        fill-rule: evenodd;
      }
    </style>
  </defs>
  <g>
    <g>
      <path class="cls-2" d="m84.0929232421,72.3173276836v-.6041c.79149998-.0166,1.341602627-.1412,1.6494999583-.3762.4099999896-.3192.6152999845-.922.6152999845-1.8109v-12.9962c0-.2849-.0657999983-.4605-.197499995-.5275-.0587999985-.0167-.2497999937-.0256-.5719999856-.0256-2.0820999474,0-3.3132999163,1.2408-3.6948999067,3.721h-.5274999867l.1317999967-4.7267h13.8114996511l.1316999967,4.7267h-.5274999867c-.3814999904-2.4802-1.6132999592-3.721-3.6947970996-3.721-.3079027993,0-.4913027946.0089-.55.0256-.1466027895.067-.2202027876.2426-.2202027876.5275v12.9962c0,.8556.2052999948,1.4419.6158999844,1.7599.3370999915.2682.9018999772.4106,1.6934999572.4272v.6041h-8.6647997811Z"/>
      <path class="cls-2" d="m95.5287229532,72.3173276836v-.6041c.7623999807-.0332,1.2459999685-.1507,1.4512999633-.3512.278299993-.2682.4182999894-.8889.4182999894-1.8608v-11.714c0-.9719-.1399999965-1.592-.4182999894-1.8608-.2052999948-.2005-.6888999826-.318-1.4512999633-.3518v-.6035h7.8292998022v.6035c-.7624968863.0338-1.2466999685.1513-1.4513999633.3518-.278799993.2688-.4176999894.8889-.4176999894,1.8608v4.977h5.6736998567v-4.977c0-.9719-.1394999965-1.592-.4176999894-1.8608-.2052999948-.2005-.6894999826-.318-1.4513968007-.3518v-.6035h7.8286966396v.6035c-.7629999807.0338-1.2459999685.1513-1.4512999633.3518-.278899993.2688-.4176999894.8889-.4176999894,1.8608v11.714c0,.9719.1387999965,1.5926.4176999894,1.8608.2052999948.2005.6882999826.318,1.4512999633.3512v.6041h-7.8286966396v-.6041c.7618968181-.0332,1.2460968059-.1507,1.4513968007-.3512.278199993-.2682.4176999894-.8889.4176999894-1.8608v-5.5805h-5.6736998567v5.5805c0,.9719.1388999965,1.5926.4176999894,1.8608.2046999948.2005.6889030771.318,1.4513999633.3512v.6041h-7.8292998022Z"/>
      <path class="cls-2" d="m130.6500220659,54.9711276836v.6035c-.6597999833,0-1.107199972.1886-1.3409999661.566-.2349999941.3768-.3524962307.9595-.3524962307,1.7469v6.9387c0,4.0722-1.1879037304,6.5607-3.5625036704,7.4661-.8353999789.3181-1.7230999565.4771-2.6605999328.4771-3.1233999211,0-5.2713998668-1.0218-6.4437998372-3.0665-.5280965596-.922-.79159998-1.8939-.79159998-2.9169v-9.0243c0-.9553-.1470999963-1.5665-.4401999889-1.8353-.2195999945-.2005-.7476999811-.318-1.58309996-.3518v-.6035h8.1585997939v.6035c-.79149998.0338-1.3124999668.1596-1.5616999605.3773-.3227999918.2848-.4829999878.8883-.4829999878,1.8098v9.4017c0,1.3077.3549035237,2.3259,1.0656999731,3.0546.710799982.7286,1.6459999584,1.0929,2.8042035507,1.0929,2.8884963055,0,4.332696269-2.1645,4.332696269-6.4954v-6.9494c0-.8728-.1791999955-1.4769-.5387999864-1.8127s-.9350999764-.4955-1.7266999564-.4788v-.6035h5.1242998705Zm-7.0158998228-1.1558h-.2194999945c-.0581999985-.419.0296999992-.9138.2645999933-1.4834.160199996-.4023.2408999939-.8711.2408999939-1.4081,0-.9215-.2265963668-1.3825-.6810999828-1.3825-.2931999926,0-.4402999889.1424-.4402999889.4272,0,.0338.0509999987.1513.1542999961.3525.1019999974.2005.1541999961.3601.1541999961.477,0,.4023-.1909999952.6035-.5719999856.6035-.39629999,0-.594499985-.2593-.594499985-.7791,0-.9215.5576999859-1.3825,1.6720999578-1.3825,1.18789997,0,1.781199955.4943,1.781199955,1.4828,0,.6877-.3523999911,1.2911-1.0561999733,1.8103-.4686999882.3519-.7036999822.7791-.7036999822,1.2823Z"/>
      <path class="cls-2" d="m136.0602219292,72.3173276836v-.6041c.7618999808-.0332,1.2459999685-.1507,1.4513039398-.3512.2788960164-.2682.4177960129-.8889.4177960129-1.8608v-11.714c0-.9719-.1388999965-1.592-.4177960129-1.8608-.2053039713-.2005-.6894039591-.318-1.4513039398-.3518v-.6035h6.7950998283c1.861899953,0,3.2040999191.1009,4.0252998983.302,1.2899999674.3187,2.455299938.9892,3.4960999117,2.0109,1.5545999607,1.5255,2.3318999411,3.5696,2.3318999411,6.1341,0,2.6986-.8283999791,4.9189-2.4849999372,6.661-.908999977.9553-1.9509999507,1.5843-3.1233999211,1.8857-.9232999767.235-2.4042999393.3525-4.4418998878.3525h-6.5980998333Zm5.9595998494-14.631v10.9605c0,1.2235.0807040904,1.9699.2420999939,2.2369.2183999945.3691.7879999801.553,1.7088999568.553,2.8634999277,0,4.2947041397-2.6475,4.2947041397-7.9432,0-2.0613-.284804241-3.7459-.8544042266-5.053-.7594999808-1.7261-1.9509999507-2.5894-3.5719999098-2.5894-.7748999804,0-1.2566999683.0842-1.4465958636.2515-.248.2178-.3727040904.7459-.3727040904,1.5837Z"/>
      <path class="cls-2" d="m152.6421215104,72.3173276836v-.6041c.7179999819-.0996,1.2388999687-.4023,1.5616999605-.9042.1162999971-.1852.4022999898-.8628.8567999784-2.0364l5.5205998605-14.2536h.7475999811l5.4541998622,12.82c.3808999904.9221.7617999808,1.8442,1.1438999711,2.7662.5719999856,1.0728,1.2460999685,1.608,2.0233999489,1.608v.6041h-8.356795204v-.6041c.5410954015,0,.9077953922-.0332,1.0988953874-.0996.4401999889-.1508.6597999833-.4534.6597999833-.9055,0-.2682-.2930999926-1.1476-.8793999778-2.6393l-.2859999928-.7298h-5.5205998605c-.5422999863,1.2413-.8128999795,2.2049-.8128999795,2.892,0,.9886.6598999833,1.4822,1.97949995,1.4822v.6041h-5.1906998689Zm5.0364043587-20.2619l-1.979404436-1.3826c-.5577999859-.3856-.8354999789-.7541-.8354999789-1.1066,0-.1839.0689044149-.3554.2089044149-.515.1387955764-.159.2894955725-.2391.4508955685-.2391.3371044315,0,.6372999839.1762.9007999772.5281l2.0897999472,2.7152h-.8354954929Zm-.6147044704,14.2791h4.6387998828l-2.3958999395-5.8553-2.2428999433,5.8553Zm1.2744999678-12.645l1.8915999522-3.0671h1.3636045504l1.8903953674,3.0671h-.9232999767l-1.6268999589-1.7095-1.6934999572,1.7095h-.9018999772Z"/>
      <path class="cls-2" d="m186.5322206542,54.9711276836v.6035c-.6597999833,0-1.107199972.1886-1.3409999661.566-.2348999941.3768-.3523999911.9595-.3523999911,1.7469v6.9387c0,4.0722-1.18789997,6.5607-3.56249991,7.4661-.8354999789.3181-1.7230999565.4771-2.6605999328.4771-3.1234999211,0-5.2713998668-1.0218-6.4438998372-3.0665-.5280999867-.922-.79149998-1.8939-.79149998-2.9169v-9.0243c0-.9553-.1471999963-1.5665-.4402999889-1.8353-.219495179-.2005-.7475999811-.318-1.58309996-.3518v-.6035h8.1586997939v.6035c-.79159998.0338-1.3124999668.1596-1.5616999605.3773-.3227999918.2848-.4829999878.8883-.4829999878,1.8098v9.4017c0,1.3077.354799991,2.3259,1.0656049354,3.0546.7108950197.7286,1.646,1.0929,2.8041949668,1.0929,2.888499927,0,4.3326998905-2.1645,4.3326998905-6.4954v-6.9494c0-.8728-.1791999955-1.4769-.5386999864-1.8127-.3595999909-.3358-.9351948709-.4955-1.7266999564-.4788v-.6035h5.1241998706Z"/>
      <path class="cls-2" d="m191.8534205198,72.3173276836v-.6041c.79269998,0,1.305399967-.4106,1.5403999611-1.2318.1019999974-.3845.1530999961-1.1891.1530999961-2.4126v-10.5581c0-.8046-.1459999963-1.341-.4390999889-1.6092-.205294619-.1839-.6241999842-.2931-1.2543999683-.3269v-.6035h6.0486998472l3.7855999044,11.1201,3.9706998997-11.1201h6.0759998465v.6035c-.7618941485.0338-1.2459999685.1513-1.4513999633.3518-.278799993.2688-.4176999894.8889-.4176999894,1.8608v11.714c0,.9719.1388999965,1.5926.4176999894,1.8608.2053999948.2005.6895058149.318,1.4513999633.3512v.6041h-7.6091998078v-.6041c.7630999807-.0332,1.2460999685-.1507,1.4513999633-.3512.278799993-.2682.418905696-.8889.418905696-1.8608v-12.3679h-.0439057055l-5.4541998622,15.184h-.7261999817l-5.1681998694-15.184v11.7651c0,1.0727.1103999972,1.7848.3298999917,2.136.277699993.4534.8579999783.6788,1.7373999561.6788v.6041h-4.8168998783Z"/>
      <path class="cls-2" d="m212.7680199914,63.6442276836c0-2.6648.7440999812-4.8519,2.2321999436-6.5613,1.4881999624-1.7095,3.3987999141-2.5639,5.7294998553-2.5639,2.3318999411,0,4.2412998929.8544,5.7293998553,2.5639,1.4880999624,1.7094,2.2321999436,3.8965,2.2321999436,6.5613s-.7440999812,4.8519-2.2321999436,6.5607c-1.4880999624,1.7101-3.3974999142,2.5645-5.7293998553,2.5645-2.3306999411,0-4.2412998929-.8544-5.7294998553-2.5645-1.4880999624-1.7088-2.2321999436-3.8959-2.2321999436-6.5607Zm4.4430998878.2267c0,2.2458.1530999961,3.9381.4591999884,5.0773.5245999867,1.9604,1.543899961,2.9419,3.0593999227,2.9419,1.5153999617,0,2.5359999359-.9815,3.0592999227-2.9419.3061999923-1.1392.4592999884-2.8315.4592999884-5.0773,0-2.3129-.1530999961-4.0728-.4592999884-5.2797-.5387999864-2.1278-1.5580999606-3.1923-3.0592999227-3.1923-1.5011939212,0-2.5205999363,1.0645-3.0593999227,3.1923-.3060999923,1.2069-.4591999884,2.9668-.4591999884,5.2797Zm.9231999767-10.433l1.8915999522-3.0671h1.363606061l1.8915938568,3.0671h-.9232999767l-1.6280999589-1.7095-1.6934999572,1.7095h-.9018999772Zm1.1000999722,21.896c0-.4533.1388999965-.839.4176999894-1.1571.278899993-.318.6158999844-.477,1.0122999744-.477.39519999,0,.7321999815.159,1.0111060771.477.2788938903.3181.4176938868.7038.4176938868,1.1571,0,.4521-.1387999965.8378-.4176938868,1.1558-.2789060956.3181-.6159060871.4783-1.0111060771.4783-.39639999,0-.7333999815-.1602-1.0122999744-.4783-.278799993-.318-.4176999894-.7037-.4176999894-1.1558Z"/>
      <path class="cls-2" d="m232.3191194975,72.3173276836v-.6041c.79149998-.0166,1.3421999661-.1412,1.6494999583-.3762.4105999896-.3192.6159064132-.922.6159064132-1.8109v-12.9962c0-.2849-.0664064271-.4605-.1982064238-.5275-.0580999985-.0167-.2491999937-.0256-.5719999856-.0256-2.0813999474,0-3.3131999163,1.2408-3.6941999067,3.721h-.5280999867l.1317999967-4.7267h13.8120996511l.1316999967,4.7267h-.5280933418c-.3809066353-2.4802-1.6127066042-3.721-3.6942065516-3.721-.3085999922,0-.4912999876.0089-.5505999861.0256-.1459999963.067-.2195999945.2426-.2195999945.5275v12.9962c0,.8556.2052999948,1.4419.6158999844,1.7599.3369999915.2682.9018999772.4106,1.6935065477.4272v.6041h-8.6654063716Z"/>
    </g>
    <g>
      <path class="cls-2" d="m84.8548232228,46.6825276836v-.391c.5861999852-.0107.9932999749-.092,1.2210999692-.2439.3037999923-.2065.4556999885-.5969.4556999885-1.1724v-8.418c0-.1845-.0486999988-.2984-.1465999963-.3417-.0432999989-.0107-.1844973151-.0167-.4229999893-.0167-1.5415999611,0-2.4534973257.8034-2.7353999309,2.4102h-.3909999901l.0979025953-3.0611h10.2252971439l.0972999975,3.0611h-.3903999901c-.2824999929-1.6068-1.1944999698-2.4102-2.7353999309-2.4102-.2277972204,0-.3636999908.006-.4069999897.0167-.1085999973.0433-.1631999959.1572-.1631999959.3417v8.418c0,.5536.1518999962.9339.4562999885,1.1398.2491999937.1739.6674999831.2658,1.2536999683.2765v.391h-6.4152998379Z"/>
      <path class="cls-2" d="m94.1681229875,46.6825276836v-.391c.553599986-.0107.9279999766-.108,1.1237999716-.2931.1951999951-.184.2930999926-.559.2930999926-1.1232v-7.6039c0-.6189-.1085999973-1.02-.3256999918-1.2051-.1524999961-.1299-.5268999867-.2059-1.1237970909-.2278v-.3905h3.7611970242c2.3989999394,0,3.880599902.0647,4.4454998877.1952.6941999825.1626,1.2590999682.467,1.6933999572.912.4769999879.4884.7161999819,1.0746.7161999819,1.7581,0,.6842-.2711999931,1.2864-.8140999794,1.8074-.4669999882.4563-1.0585999733.7815-1.7746999552.9773l1.9698999502,3.0771c.1738999956.2824.434299989.6948.7814999803,1.2377.4016999899.5857.7653999807.8788,1.091103153.8788v.391h-3.7773030852l-3.126399921-5.2755h-.4882969938v3.4682c0,.5536.0895970039.9256.2687969993,1.1155.1785999955.1898.5393999864.2901,1.0822999727.3008v.391h-5.7964998536Zm4.4454028816-9.7856v3.9405c1.9865969559.0973,2.9791969309-.7168,2.9791969309-2.4429,0-.6942-.1678999958-1.2537-.5042999873-1.6768-.3690999907-.4664-.8953999774-.7002-1.5794999601-.7002-.3583969835,0-.5968999849.057-.7161999819.1709-.119899997.114-.1791970016.3501-.1791970016.7085Z"/>
      <path class="cls-2" d="m119.4545258691,35.8384276836c-.488903508,0-.82.1222-.9932034953.3666-.1744999956.2439-.2610999934.6213-.2610999934,1.1316v4.4941c0,2.6374-.8793999778,4.2496-2.6368999334,4.8358-.6194999844.2059-1.2756999678.3091-1.9710999502.3091-2.3116966277,0-3.9018999014-.6621-4.7699998795-1.9865-.3909999901-.5969-.5861999852-1.2265-.5861999852-1.8887v-5.8451c0-.6189-.1085999973-1.0152-.3257999918-1.1891-.1625999959-.1299-.553599986-.2059-1.1724999704-.2278v-.3905h6.0403998474v.3905c-.5861999852.0219-.9706999755.1032-1.1558999708.2444-.238499994.1846-.3583999909.5756-.3583999909,1.1725v6.0896c0,.8467.2634999933,1.5059.79039998,1.9782.5256999867.4718,1.2175999692.7079,2.0755999476.7079,2.138399946,0,3.207599919-1.4021,3.207599919-4.2075v-4.5012c0-.5654-.1328965331-.9565-.3986999899-1.1742-.2657999933-.2172-.6917999825-.3204-1.2780999677-.3097v-.3905h3.7772999046c.119899997-.1192.1791999955-.2658.1791999955-.4396,0-.2499-.1411999964-.3745-.4235964755-.3745-.1306035105,0-.2445035076.076-.3418035051.2279l-.1625999959-.1466c.1411999964-.3584.434299989-.5375.879403501-.5375.4235964661,0,.6347964607.2142.6347964607.6414,0,.4165-.2502999937.7565-.7487964607,1.0194Z"/>
      <path class="cls-2" d="m129.3054220999,35.6918276836c.3251999918-.1952.4877999877-.4231.4877999877-.6835,0-.2499-.1412999964-.3745-.4224999893-.3745-.1304999967,0-.2444999938.076-.3417999914.2279l-.1636999959-.1466c.1411999964-.3584.4343037581-.5375.8793037581-.5375.423696209,0,.6348962037.2118.6348962037.6348,0,.4237-.2550999936.7655-.7641999807,1.026.9658999756.5102,1.7087999568,1.2294,2.2297999437,2.1574s.7819999802,1.9515.7819999802,3.0694c0,1.7261-.5517999861,3.1424-1.6530999582,4.2496-1.1011999722,1.1072-2.5157999364,1.6608-4.2412998929,1.6608-1.7253999564,0-3.1399999207-.5536-4.2412998929-1.6608-1.1023999722-1.1072-1.6530999582-2.5235-1.6530999582-4.2496,0-1.726.5506999861-3.1424,1.6530999582-4.2496,1.1012999722-1.1072,2.5158999364-1.6608,4.2412998929-1.6608.911399977,0,1.7693999553.1792,2.572799935.537Zm-5.1775998692,5.52c0,1.4543.1127036384,2.5508.3393999914,3.289.3880999902,1.2697,1.1439999711,1.9052,2.2653999428,1.9052,1.1214999717,0,1.8773999526-.6355,2.2654999428-1.9052.2265999943-.7382.3394037614-1.8347.3394037614-3.289,0-1.4982-.1128037672-2.6381-.3394037614-3.4195-.3987999899-1.3784-1.1546999708-2.0679-2.2654999428-2.0679-1.1106999719,0-1.8666999528.6895-2.2653999428,2.0679-.226696353.7814-.3393999914,1.9213-.3393999914,3.4195Zm2.2630999428-6.953l-1.465599963-.8953c-.4129999896-.2492-.6182999844-.4884-.6182999844-.7162,0-.1193.0509999987-.2308.1542999961-.3341.1032036468-.1026.2135999946-.1542.3333999916-.1542.2503999937,0,.4722999881.1139.6681999831.3417l1.5461999609,1.7581h-.6181999844Z"/>
      <path class="cls-2" d="m133.9122219835,46.6825276836v-.391c.9553038856-.0427,1.4335999638-.5589,1.4335999638-1.5463v-7.8809c-.3263999918-.4231-.5209999868-.6676-.5862960782-.7328-.261-.2386-.5435038933-.3365-.8473038856-.2931v-.3905h4.0870998968l6.0082998482,6.7079v-4.7706c0-.5969-.1328999966-1.0069-.3986999899-1.2294-.2658999933-.2219-.6977999824-.3281-1.2946999673-.3174v-.3905h3.7285999058v.3905c-.8353999789.0439-1.2543999683.5595-1.2543999683,1.5468v9.5904l-.39509999.0042-8.2666997912-9.181v6.9446c0,.6082.1519039415,1.0265.4556999885,1.255.2717999931.2065.7167999819.3044,1.3350999663.2931v.391h-4.0051998988Z"/>
      <path class="cls-2" d="m159.4111213394,41.7814276836v.391c-.3903999901-.0433-.6953999824.076-.911399977.3584-.1850999953.2385-.277699993.559-.277699993.9607v2.4582c-1.5082999619.6842-3.1423999206,1.0259-4.9010998762,1.0259-1.7254999564,0-3.1803956241-.5589-4.3634998898-1.6768-1.2151999693-1.1398-1.822799954-2.5674-1.822799954-4.2828,0-1.7688.6561999834-3.2071,1.9699042196-4.3143,1.2483956991-1.0313,2.7733956606-1.5469,4.5747956151-1.5469.9006999772,0,1.7693999553.1739,2.6059999342.521.2598999934.1086.4817999878.1626.6668999832.1626.3690999907,0,.634899984-.2279.7974999799-.6836h.3915999901v3.8099h-.4390999889c-.2704999932-.8289-.7309999815-1.5545-1.3812999651-2.1764-.7250999817-.709-1.4833955483-1.0639-2.2748999425-1.0639-1.2234956058,0-2.1609999454.5756-2.810199929,1.7261-.5422956768.9553-.8127999795,2.1112-.8127999795,3.4682,0,1.4003.2491999937,2.5941.7463999811,3.5821.6383999839,1.2697,1.5853999599,1.9052,2.8397999283,1.9052.6063999847,0,1.0015999747-.2444,1.1854999701-.7328.1079999973-.2824.1613999959-.8247.1613999959-1.6281,0-.6842-.1292999967-1.1589-.3903999901-1.4253-.2598999934-.2658-.7381955826-.4147-1.4323999638-.4474v-.391h5.8777998515Z"/>
      <path class="cls-2" d="m164.5235258691,46.6825276836v-.391c.5647953268-.0214.922-.0973,1.0750953139-.2278.2052999948-.1733.3085999922-.575.3085999922-1.2046v-3.8265h-1.3836953062v-.9446h1.3836953062v-2.8167c0-.6295-.1032999974-1.0312-.3085999922-1.2051-.1530953139-.1299-.5102999871-.2059-1.0750953139-.2278v-.3905h5.031595214c1.3777999652,0,2.3710999401.0647,2.9797999247.1952.9541999759.2065,1.8180999541.6409,2.5882999346,1.3025,1.1510999709.9879,1.7265999564,2.3123,1.7265999564,3.9731,0,1.7474-.6134999845,3.1857-1.8405999535,4.3148-.672799983.6189-1.4441999635,1.026-2.3116950762,1.2212-.6835048481.1519-1.78.2278-3.2895047823.2278h-4.8844952177Zm4.4121952296-9.4765v2.882h2.7352999309v.9446h-2.7352999309v3.2729c0,.7922.0592999985,1.2752.1790999955,1.449.1613999959.2385.5838999852.3584,1.265099968.3584,2.1206048068,0,3.1803999197-1.7154,3.1803999197-5.1456,0-1.335-.2112999947-2.4262-.632599984-3.2729-.5624999858-1.1179-1.4441951288-1.6769-2.6450999332-1.6769-.5731999855,0-.9303999765.0546-1.070399973.1626-.1839999954.1412-.276499993.4836-.276499993,1.0259Z"/>
      <path class="cls-2" d="m178.1350208663,46.6825276836v-.391c.5316999866-.0647.9173999768-.2605,1.1558999708-.5856.0866050319-.1199.2989999924-.559.634899984-1.3191l4.0869998968-9.232h.554199986l4.037199898,8.304c.2823999929.5969.5648999857,1.1939.8473052672,1.7908.4236947007.6948.9220946881,1.0419,1.4975946735,1.0419v.391h-6.1874998437v-.391c.4022999898,0,.6729051701-.0214.8140999794-.0647.3263999918-.0979.4888999876-.2931.4888999876-.5862,0-.1739-.2170947969-.7435-.6514999835-1.7101l-.2111999947-.4717h-4.0869998968c-.4022999898.8034-.6028999848,1.427-.6028999848,1.8721,0,.6408.4888999876.9606,1.465599963.9606v.391h-3.8425999029Zm3.2741999173-3.8752h3.4343050855l-1.7741051274-3.7921-1.6601999581,3.7921Zm.910199977,5.5847c0-.2931.1031999974-.5429.3096999922-.7488.2064999948-.2065.4556999885-.3092.7487999811-.3092s.5423999863.1027.7487999811.3092c.2064999948.2059.3098051541.4557.3098051541.7488s-.1033051593.5429-.3098051541.7494c-.2063999948.2059-.4556999885.3091-.7487999811.3091s-.5422999863-.1032-.7487999811-.3091c-.2064999948-.2065-.3096999922-.4563-.3096999922-.7494Z"/>
      <path class="cls-2" d="m191.6980205237,46.6825276836v-.391c.5647999857-.0214.9231999767-.0973,1.0750999728-.2278.2064999948-.1733.3097999922-.575.3097999922-1.2046v-7.5878c0-.6295-.1032999974-1.0312-.3097999922-1.2051-.1518999962-.1299-.5102999871-.2059-1.0750999728-.2278v-.3905h5.7969998536v.3905c-.5647999857.0219-.9231999767.0979-1.0750999728.2278-.2052999948.1739-.3085999922.5756-.3085999922,1.2051v7.5878c0,.6296.1032999974,1.0313.3085999922,1.2046.1518999962.1305.5102999871.2064,1.0750999728.2278v.391h-5.7969998536Z"/>
      <path class="cls-2" d="m202.2656202568,46.6825276836v-.391c.5649056123-.0214.9220999767-.0973,1.0751999728-.2278.2052999948-.1733.3084999922-.575.3084999922-1.2046v-7.5878c0-.6295-.1031999974-1.0312-.3084999922-1.2051-.1530999961-.1299-.5102943605-.2059-1.0751999728-.2278v-.3905h5.7970998536v.3905c-.5648999857.0219-.9231942412.0979-1.0750999728.2278-.2064999948.1739-.3097999922.5756-.3097999922,1.2051v3.2237h4.2009998939v-3.2237c0-.6295-.1032941701-1.0312-.3097999922-1.2051-.1518999962-.1299-.5101999871-.2059-1.0738999729-.2278v-.3905h5.7958998536v.3905c-.5636999858.0219-.9220999767.0979-1.0739999729.2278-.2064940857.1739-.3096999922.5756-.3096999922,1.2051v7.5878c0,.6296.1032059064,1.0313.3096999922,1.2046.1518999962.1305.5102999871.2064,1.0739999729.2278v.391h-5.7958998536v-.391c.5636999858-.0214.9219999767-.0973,1.0738999729-.2278.2065058221-.1733.3097999922-.575.3097999922-1.2046v-3.6147h-4.2009998939v3.6147c0,.6296.1032999974,1.0313.3097999922,1.2046.1519057316.1305.5101999871.2064,1.0750999728.2278v.391h-5.7970998536Z"/>
      <path class="cls-2" d="m216.5287198964,41.0652276836c0-1.726.5505999861-3.1424,1.6530999582-4.2496,1.1012999722-1.1072,2.5157999364-1.6608,4.2412998929-1.6608s3.1399999207.5536,4.2412998929,1.6608,1.6531062287,2.5236,1.6531062287,4.2496c0,1.7261-.5518062565,3.1424-1.6531062287,4.2496s-2.5157999364,1.6608-4.2412998929,1.6608-3.1399999207-.5536-4.2412998929-1.6608c-1.1024999721-1.1072-1.6530999582-2.5235-1.6530999582-4.2496Zm3.2895999169.1466c0,1.4543.1126999972,2.5508.3393999914,3.289.3879999902,1.2697,1.1439999711,1.9052,2.2653999428,1.9052,1.1214061216,0,1.8774061216-.6355,2.2654061216-1.9052.2266938155-.7382.3393938126-1.8347.3393938126-3.289,0-1.4982-.1126999972-2.6381-.3393938126-3.4195-.3987061687-1.3784-1.1546061496-2.0679-2.2654061216-2.0679s-1.8666999528.6895-2.2653999428,2.0679c-.2266999943.7814-.3393999914,1.9213-.3393999914,3.4195Zm1.4975999622,7.4246c0-.2931.1031999974-.5429.3096999922-.7488.2052999948-.2065.4556999885-.3097.7489061014-.3097.2930938723,0,.542293866.1032.7487938608.3097.2064999948.2059.3096999922.4557.3096999922.7488,0,.2932-.1031999974.5424-.3096999922.7489-.2064999948.2064-.4556999885.3097-.7487938608.3097-.2932061129,0-.5436061066-.1033-.7489061014-.3097-.2064999948-.2065-.3096999922-.4557-.3096999922-.7489Z"/>
      <path class="cls-2" d="m240.2689192967,35.1708276836v3.8592h-.4224999893c-.3464999912-.8746-.8235999792-1.6038-1.4299999639-2.1871-.714399982-.6806-1.4940999623-1.0206-2.3389999409-1.0206-1.8405999535,0-2.7614999302,1.7125-2.7614999302,5.1367,0,3.4361.9208999767,5.1539,2.7614999302,5.1539,1.6672999579,0,3.0699999224-.7927,4.2068998937-2.3776v1.1238c-.4770999879.6622-1.1225999716,1.1832-1.9366999511,1.5629-.7713999805.3691-1.5794999601.5536-2.4267999387.5536-1.7586999556,0-3.1803999197-.5447-4.2662935375-1.6341-1.0846063274-1.0894-1.6281063136-2.5122-1.6281063136-4.268,0-1.7237.5564999859-3.1465,1.6696999578-4.2686,1.1118999719-1.122,2.5311999361-1.6667,4.2578998924-1.6341.8021999797.0107,1.6601999581.1964,2.572799935.5566.2159999945.0848.4069999897.1276.5695999856.1276.4224999893,0,.6834999827-.2285.7808999803-.6842h.3915999901Z"/>
    </g>
    <g>
      <path class="cls-4" d="m85.3971232091,84.0159276836h-2.7436999307v-.9945h6.6188998328v.9945h-2.7436999307v7.0075h-1.1314999714v-7.0075Z"/>
      <path class="cls-4" d="m97.4458229047,83.0214276836v8.002h-1.1427999711v-3.5673h-4.5955998839v3.5673h-1.1433999711v-8.002h1.1433999711v3.4403h4.5955998839v-3.4403h1.1427999711Z"/>
      <path class="cls-4" d="m100.7152228221,90.1998276836c-.594599985-.6099-.8917999775-1.4857-.8917999775-2.6285v-4.5499h1.1433999711v4.5036c0,1.7148.750599981,2.5716,2.2517030533,2.5716.7315968713,0,1.2917968572-.2113,1.681-.6337.3886968375-.4237.5826968326-1.0693.5826968326-1.9379v-4.5036h1.108999972v4.5499c0,1.1499-.2972999925,2.028-.8917999775,2.6345-.594599985.6064-1.425299964.909-2.492099937.909-1.066899973,0-1.8975999521-.305-2.492099937-.915Z"/>
      <path class="cls-4" d="m112.1005258691,83.0214276836h3.3725965802c.8460999786,0,1.5960999597.1673,2.2524034198.502.6550965068.3358,1.1641964939.8069,1.5260964848,1.4122.3619999909.6064.5422999863,1.3018.5422999863,2.0862,0,.7856-.1802999954,1.481-.5422999863,2.0862-.3618999909.6065-.870999978,1.0764-1.5260964848,1.4122-.6563034601.3359-1.4063034411.5032-2.2524034198.5032h-3.3725965802v-8.002Zm3.303796582,7.0075c.6478999836,0,1.2175999692-.1258,1.7088999568-.3773.4923999876-.2516.870999978-.6041,1.1379999713-1.0574s.3998999899-.9778.3998999899-1.5724c0-.5945-.1328999966-1.1179-.3998999899-1.5712s-.6455999837-.807-1.1379999713-1.0574c-.4912999876-.2515-1.0609999732-.3773-1.7088999568-.3773h-2.159796582v6.013h2.159796582Z"/>
      <path class="cls-4" d="m126.6875258691,89.0226276836h-4.2519035957l-.8805999778,2.0008h-1.1771999703l3.6229999085-8.002h1.1320999714l3.6348999082,8.002h-1.1996999697l-.8805962747-2.0008Zm-.399903693-.9149l-1.7265999564-3.9209-1.7254963506,3.9209h3.452096307Z"/>
      <path class="cls-4" d="m130.8256220615,90.1998276836c-.594499985-.6099-.8923999775-1.4857-.8923999775-2.6285v-4.5499h1.1439999711v4.5036c0,1.7148.7499999811,2.5716,2.2511999431,2.5716.7321999815,0,1.2922999674-.2113,1.6814999575-.6337.3880999902-.4237.5826999853-1.0693.5826999853-1.9379v-4.5036h1.108399972v4.5499c0,1.1499-.2966999925,2.028-.8911999775,2.6345-.594599985.6064-1.4252960665.909-2.492099937.909-1.066899973,0-1.8975999521-.305-2.492099937-.915Z"/>
      <path class="cls-4" d="m149.6302215864,91.0234276836l-.0117999997-5.8303-2.8920999269,4.8584h-.5256999867l-2.8919999269-4.824v5.7959h-1.0976999723v-8.002h.9374999763l3.3381999157,5.6238,3.2919999168-5.6238h.9374999763l.0117999997,8.002h-1.0976999723Z"/>
      <path class="cls-4" d="m154.6026214608,90.5831276836c-.6479999836-.3548-1.1558999708-.8437-1.5261999614-1.4691-.3689999907-.6242-.554199986-1.322-.554199986-2.0922,0-.769.1851999953-1.4668.554199986-2.0922.3702999906-.6242.8781999778-1.1143,1.5261999614-1.4691.6479044083-.3536,1.3752999653-.5305,2.1834999448-.5305.8009999798,0,1.5248999615.1769,2.1728999451.5305.6466999837.3548,1.1535045183.8426,1.5200999616,1.4644.3655999908.6206.5482999861,1.3196.5482999861,2.0969s-.1826999954,1.4763-.5482999861,2.0981c-.3665954433.6207-.8733999779,1.1084-1.5200999616,1.4632-.6479999836.3549-1.3718999653.5317-2.1728999451.5317-.8081999796,0-1.5355955366-.1768-2.1834999448-.5317Zm3.7665999048-.8864c.4686999882-.2659.8389999788-.6337,1.109499972-1.1025.2705999932-.4687.4058999897-.9933.4058999897-1.5724s-.1352999966-1.1024-.4058999897-1.5712c-.2704999932-.4687-.6407999838-.8366-1.109499972-1.1036-.4687999882-.267-.9956954966-.4-1.58309996-.4-.5861999852,0-1.1178999718.133-1.5948999597.4-.475899988.267-.8496955769.6349-1.1202999717,1.1036-.2705999932.4688-.4058999897.9921-.4058999897,1.5712s.1352999966,1.1037.4058999897,1.5724c.2706043948.4688.6443999837.8366,1.1202999717,1.1025.4769999879.267,1.0086999745.3999,1.5948999597.3999.5874044634,0,1.1142999719-.1329,1.58309996-.3999Z"/>
      <path class="cls-4" d="m164.411921213,84.0159276836h-2.7436999307v-.9945h6.6183045868v.9945h-2.7437046846v7.0075h-1.1308999714v-7.0075Z"/>
      <path class="cls-4" d="m173.5223209829,90.1998276836c-.594599985-.6099-.8923999775-1.4857-.8923999775-2.6285v-4.5499h1.1439999711v4.5036c0,1.7148.7499999811,2.5716,2.2511999431,2.5716.7321999815,0,1.2922999674-.2113,1.6814999575-.6337.3880999902-.4237.5826999853-1.0693.5826999853-1.9379v-4.5036h1.108399972v4.5499c0,1.1499-.2966999925,2.028-.8911949654,2.6345-.5946049971.6064-1.4253049761.909-2.4921049492.909-1.0668950508,0-1.8975999521-.305-2.492099937-.915Z"/>
      <path class="cls-4" d="m188.6695258691,83.0214276836v8.002h-.9375052452l-4.8014947548-5.968v5.968h-1.142805095v-8.002h.9374999763l4.8014998787,5.9668v-5.9668h1.14280524Z"/>
      <path class="cls-4" d="m191.1153205384,83.0214276836h1.1439999711v8.002h-1.1439999711v-8.002Z"/>
      <path class="cls-4" d="m201.6557202722,83.0214276836l-3.5102999113,8.002h-1.1309999714l-3.5208945203-8.002h1.2340945781l2.8813999272,6.5732,2.9026999267-6.5732h1.1439999711Z"/>
      <path class="cls-4" d="m208.6976200943,90.0289276836v.9945h-5.8077998533v-8.002h5.6475998573v.9945h-4.5035998862v2.4577h4.0122998986v.9719h-4.0122998986v2.5834h4.6637998822Z"/>
      <path class="cls-4" d="m215.9448199112,91.0234276836l-1.7265999564-2.4577c-.2123999946.0154-.3809999904.0226-.5019999873.0226h-1.97819995v2.4351h-1.1427999711v-8.002h3.1209999212c1.0359999738,0,1.8513059016.2468,2.4457999382.7429.594599985.4948.8911999775,1.1772.8911999775,2.0459,0,.6171-.1518999962,1.1428-.4567999885,1.5771-.3049999923.4344-.7393999813.7512-1.3030999671.9494l1.8975999521,2.6867h-1.2460999685Zm-.6063999847-3.8758c.3809999904-.3121.5719999856-.7583.5719999856-1.3374s-.1909999952-1.023-.5719999856-1.3315c-.3808940574-.3086-.9326999764-.4628-1.6565999582-.4628h-1.9437999509v3.6005h1.9437999509c.7238999817,0,1.2757059007-.1555,1.6565999582-.4688Z"/>
      <path class="cls-4" d="m219.5394198204,90.8347276836c-.5600999859-.1863-1.0003999747-.4284-1.3195999667-.7263l.4223999893-.8912c.3049999923.2742.6954999824.4973,1.1724999704.6681.475899988.1721.9659999756.2576,1.4679999629.2576.6632999832,0,1.1581999707-.1128,1.4868999624-.3371.3275999917-.2254.4912999876-.5245.4912999876-.8971,0-.2753-.0901999977-.4972-.2681999932-.6693-.1791938641-.1709-.4010999899-.3026-.6632999832-.394-.2634999933-.0914-.6348938808-.1946-1.1143999718-.3086-.6027999848-.1447-1.0881999725-.2895-1.4583999632-.4343-.3690939458-.1448-.6859999827-.3679-.948199976-.6693-.2634999933-.3014-.39519999-.7073-.39519999-1.2176,0-.426.1126999972-.8117.3381999915-1.1546.2242999943-.343.5648999857-.6171,1.0229999742-.8224.4568999885-.2065,1.0241060546-.3086,1.702899957-.3086.4722999881,0,.9374999763.0606,1.3943999648.1828.4580999884.121.8496999785.2967,1.1783999702.5257l-.3773999905.9138c-.3357999915-.2125-.6941938469-.375-1.0750999728-.4854-.3809999904-.1104-.7547999809-.1661-1.1202999717-.1661-.6478999836,0-1.1332999714.1186-1.4572999632.3548-.3239999918.2361-.4852999877.5411-.4852999877.9149,0,.2742.0912999977.4973.2740999931.6682.1827060555.172.4093999897.3049.6799999828.3999.2704999932.0961.6383999839.197,1.1023999722.3038.6028999848.1448,1.0869999725.2895,1.4525999633.4343.3654999908.1448.6798999828.3655.9433999762.6622.2623061611.2979.39399999.6978.39399999,1.201,0,.4189-.1138999971.8022-.3429999913,1.1487-.2289999942.3465-.5754999855.6206-1.0406938376.8236-.464.2017-1.036.3026-1.7148060928.3026-.6016999848,0-1.1831939073-.0938-1.743299956-.2801Z"/>
      <path class="cls-4" d="m226.0960196548,83.0214276836h1.1427999711v8.002h-1.1427999711v-8.002Z"/>
      <path class="cls-4" d="m231.2748195239,84.0159276836h-2.7436999307v-.9945h6.6182998328v.9945h-2.7436999307v7.0075h-1.1308999714v-7.0075Z"/>
      <path class="cls-4" d="m239.504619316,88.2572276836v2.7662h-1.1308999714v-2.79l-3.1779999197-5.212h1.2222999691l2.5608999353,4.2176,2.572799935-4.2176h1.1308999714l-3.1779999197,5.2358Z"/>
    </g>
  </g>
  <g>
    <path class="cls-3" d="m73.1246258691,44.5004276836c.7045-1.6385,1.574-1.5612,2.201-2.7732v27.6146c-3.2255,5.5592-6.5675,4.777-11.9457,11.3253,3.5553-7.3562,9.205-8.0803,9.6186-12.4111.0518-8.1707.0743-15.5849.1261-23.7556Zm-30.7203,0c-.7044-1.6385-1.574-1.5612-2.201-2.7732v27.6146c3.2255,5.5592,6.5676,4.777,11.9457,11.3253-3.5553-7.3562-9.2049-8.0803-9.6186-12.4111-.0518-8.1707-.0743-15.5849-.1261-23.7556Zm14.2436,11.4996c-3.9044-8.8947-8.72-8.9464-11.4802-15.9792v25.1323c2.2262,8.543,8.4575,7.3908,11.7905,17.841l-.1876-16.3201c-1.1609-.382-1.999-1.4748-1.999-2.7635,0-1.2652.8077-2.3416,1.9357-2.7418l-.0594-5.1687Zm2.173,5.234l.0485.0212.0079.0035.0139.0065.0392.0183.0244.0117.027.0135.0302.0153.0466.0245.0081.0044.0059.0032.0462.0258.0189.011.042.0248.0088.0053.0068.004.0446.0277.0082.0053.0064.0043.0456.03.0129.0088.0377.026.0134.0093.0059.0043.0424.0308.0082.0061.0071.0054.0383.0294.0179.014.0393.0316.0073.006.0052.0042.0398.0337.0084.0072.0084.0074.0377.0337.0118.0105.0453.0422.0046.0043.0373.0365.0081.008.0081.0082.0323.0334.0142.0147.0417.0447.0038.0042.0346.039.0079.009.0261.0307.0082.0099.0185.0222.0272.0338.009.0112.0031.0039.0318.0415.0076.0101.0069.0095.029.0396.0089.0128.0346.0498.0017.0024.0025.0036.0288.0437.0072.0112.005.0079.0286.046.0067.0112.0263.0441.0063.0107.0018.0033.0311.0556.0042.0078.0245.0466.0055.0103.0095.0189.0219.0443.0014.003.0224.0478.0061.0132.0042.0097.018.0412.0121.0282.002.0049.0189.0465.001.0026.019.0497.0014.0038.009.025.0158.0449.0045.0135.0141.0432.0062.0188.0005.0022.0032.0101.0163.0554.0011.0037.0165.0613.0023.0082.0164.0673.0004.0016.0116.0529.0033.0161.0023.0116.0093.049.0034.0183.0106.0643.0003.0012.0076.0543.0005.0045.0046.0371.003.0249.0037.0374.0007.0052.0046.0546v.0006l.0005.0067.0041.0657.0003.0035.0022.0568.0007.0294.0007.0611-.0007.0625-.0008.0315-.0018.0433-.001.021-.0034.0549-.0008.0107-.0002.0036-.0049.0563-.0007.0063-.0031.0289-.0037.032-.0045.0365-.001.0076-.0069.0479-.0102.0622-.0017.0098-.0021.0107-.0092.0482-.0054.0262-.0097.0446-.0034.0154c-.0104.0445-.0218.0886-.0341.1324l-.0032.0113-.0134.0449-.0048.0163-.0044.014c-.0123.0388-.0254.0771-.0393.1151l-.0059.016-.0158.042-.0102.0261-.0021.0051-.0201.0489-.0006.0013-.0054.0125-.0214.0485-.0031.007-.0249.0532-.0055.0118-.0243.0485-.0045.0093-.0022.0042-.0302.057-.0022.004-.0271.0487-.0105.018c-.0205.0353-.0416.0703-.0634.1047l-.0044.0069-.005.0074-.0321.0488-.0029.0045-.0345.0497-.0039.0056-.0069.0097-.0315.0431-.0028.0037-.0295.0387-.0054.0069-.0167.0213-.0281.0349-.0097.0118-.0398.047-.0016.0018-.0007.0009-.0344.039-.0119.0132-.0103.0111-.0287.0308-.0133.0139-.044.0452-.0016.0018-.0381.0372-.0103.0098-.0118.011-.0287.0267-.0172.0158-.0411.0365-.0044.0038-.0045.004-.0407.0343-.0019.0014-.0264.0217-.0196.0157-.0277.0219-.0239.0183-.0259.0196-.0003.0001-.0431.0316-.0058.0041-.0102.0071-.0405.0281-.0173.0116-.0352.0231-.0171.0111-.0522.0326-.0031.0019-.0096.0057-.0435.0258-.0196.0112-.0343.019-.0244.0135-.0052.0028-.0473.0249h-.0002l-.048.024-.0046.0023-.0339.0161-.0194.009-.0332.0151-.0241.0106-.0322.014-.05.0205-.1883,16.3815c3.3331-10.4502,9.5644-9.298,11.7906-17.841v-25.1323c-2.7603,7.0328-7.5759,7.0845-11.4803,15.9792l-.0601,5.234Z"/>
    <g>
      <path class="cls-1" d="m51.0394258691,85.2358276836v5.987h-1.1119v-5.0554h-1.2662v-.9316h2.3781Z"/>
      <path class="cls-1" d="m56.1589258691,85.9194276836c.4533.5138.68,1.2496.68,2.2072,0,.6729-.1228,1.2473-.3679,1.7231-.2456.4771-.5892.839-1.0306,1.0871-.4421.248-.9542.3714-1.5357.3714-.3079,0-.5975-.032-.868-.0985-.2712-.0653-.5062-.1602-.7061-.286l.4106-.8378c.2967.1934.6758.2907,1.138.2907.5756,0,1.0265-.1768,1.3511-.5304.3252-.3537.4877-.8639.4877-1.5309v-.0095c-.1768.2053-.4017.3608-.6758.4664-.2735.1056-.5815.1578-.9238.1578-.3934,0-.7471-.0747-1.0604-.2266-.3139-.1507-.5589-.3655-.7357-.6456-.1769-.2789-.2653-.6017-.2653-.966,0-.388.0968-.7286.2908-1.0229.194-.2931.4563-.5198.7868-.68.3311-.159.7019-.2385,1.1125-.2385.8206,0,1.4579.2563,1.9118.769Zm-.95,1.8477c.2255-.1935.3383-.4391.3383-.7358,0-.2907-.1098-.5316-.3294-.7227-.2195-.1911-.5233-.286-.9114-.286-.3477,0-.6301.0926-.8467.2777-.2165.1851-.3251.432-.3251.7393,0,.3145.1086.5625.3251.7453.2166.1815.5079.2729.8729.2729.3589,0,.6515-.0961.8763-.2907Z"/>
      <path class="cls-1" d="m62.0658258691,85.2358276836v.7441l-2.3266,5.2429h-1.1891l2.2494-5.0471h-2.352v1.0182h-1.0348v-1.9581h4.6531Z"/>
      <path class="cls-1" d="m66.3593258691,87.7540276836c.3139.1519.5589.3667.7357.6468.1769.2788.2653.6016.2653.966,0,.388-.0973.7286-.2908,1.0217-.194.2943-.4563.521-.7868.6812-.3311.159-.7019.2385-1.1125.2385-.8212,0-1.4585-.2563-1.9118-.769-.4533-.5138-.68-1.2496-.68-2.2073,0-.6728.1228-1.2472.3679-1.7243.2451-.4758.5886-.8378,1.0307-1.0858.442-.248.9541-.3714,1.5356-.3714.3079,0,.5975.032.868.0973.2712.0664.5062.1614.7061.2872l-.4106.8378c-.2966-.1935-.6758-.2908-1.138-.2908-.5762,0-1.0265.1769-1.3511.5305-.3252.3536-.4877.8639-.4877,1.5309v.0094c.1768-.2053.4017-.3607.6758-.4663.2735-.1056.5815-.159.9239-.159.3934,0,.747.0759,1.0603.2266Zm-.4017,2.4043c.2166-.1851.3251-.432.3251-.7405,0-.3133-.1085-.5613-.3251-.7441-.2172-.1816-.5079-.2729-.8728-.2729-.359,0-.6515.0961-.8764.2907-.2255.1934-.3382.4391-.3382.7358,0,.2907.1097.5316.3293.7227.2195.191.5233.286.9108.286.3483,0,.6301-.0926.8473-.2777Z"/>
    </g>
    <path class="cls-4" d="m90.5131230799,3.8541276836c-22.1070972108,10.6271-31.6573972108,35.0918-31.6573972108,35.0918-2.1424-5.4955-4.0068-9.1996-7.2647-12.9276-8.9767-10.4611-25.21-11.2476-25.21-11.2476,19.1577,8.312,23.9874,26.8935,25.0529,32.7259,1.8748,1.8792,3.9045,4.172,5.7105,8.2855l.0455.2117.0608,5.5704c-1.1.2114-1.932,1.1766-1.932,2.3383,0,1.3166,1.0674,2.3841,2.3841,2.3841,1.3166,0,2.384-1.0675,2.384-2.3841,0-1.1136-.7671-2.0411-1.7994-2.3031l.0971-5.8173c.9927-2.261,2.0534-3.9629,3.1185-5.3578-.0637-1.0186-.3879-4.6127-1.9544-9.4746,7.025-18.6464,25.4959973489-26.3102,36.1365970801-29.2355,3.5468999104-.9751,9.2243029199-1.7876,12.4545996854-2.3341,5.93759985-1.0045,7.8195998025-3.2255,7.7005998055-5.1828-.235599994-3.8766-10.0803997453-6.9368-25.3272993602-.3432Z"/>
    <path class="cls-3" d="m60.1461258691,41.0434276836c1.7839,5.6405,1.91,9.5039,1.9147,9.6677l-.0003.4518c.2403-.3327.481-.6545.7223-.9546l.0182-.4118c.9227-20.3233,22.2696973483-32.046,35.5623970125-37.6214.7651999807-.3138,1.4747999627-.6163,2.1601029875-.9135-8.7634028207,1.7937-32.0334,8.5446-40.3774,29.7818Z"/>
    <path class="cls-3" d="m58.8148258691,37.3771276836c1.7596-4.0865,11.4802-24.8188,31.3578972194-34.374,2.2558027806-.9755,4.4150998885-1.7294,6.4636998367-2.3029-28.1049970561,4.1453-37.6293970561,27.5935-39.3715970561,31.2553C43.5781258691,3.2547276836,22.6636258691,3.8756276836,19.1265258691,3.8756276836,7.4867258691,4.3481276836,2.9119258691,7.2563276836.9952258691,9.7715276836c-2.3116,3.0333-.1416,5.6047,1.8998,5.6887,2.2773.0937,5.4187-.1647,8.5339-.7174,2.1779-.3864,10.6198-1.7614,14.9521-1.4056,7.7407.6357,13.3737,2.6117,17.182,4.7878,3.5082,2.0046,10.9402,7.942,15.2518,19.2521Z"/>
  </g>
</svg>